<svg width="1600" height="1600" viewBox="0 0 1600 1600" fill="none" xmlns="http://www.w3.org/2000/svg">
<g clip-path="url(#clip0_1_8)">
<path d="M866.667 600H933.333V666.667H1100C1108.84 666.667 1117.32 670.179 1123.57 676.43C1129.82 682.681 1133.33 691.159 1133.33 700V950L933.333 833.333L934.533 1102.07L1008.63 1030.4L1068.03 1133.33H700C691.159 1133.33 682.681 1129.82 676.43 1123.57C670.179 1117.32 666.667 1108.84 666.667 1100V933.333H600V866.667H666.667V700C666.667 691.159 670.179 682.681 676.43 676.43C682.681 670.179 691.159 666.667 700 666.667H866.667V600ZM1133.33 977.933V1100C1133.34 1103.47 1132.8 1106.93 1131.73 1110.23L1066.4 997.1L1133.33 977.933ZM533.333 866.667V933.333H466.667V866.667H533.333ZM533.333 733.333V800H466.667V733.333H533.333ZM533.333 600V666.667H466.667V600H533.333ZM533.333 466.667V533.333H466.667V466.667H533.333ZM666.667 466.667V533.333H600V466.667H666.667ZM800 466.667V533.333H733.333V466.667H800ZM933.333 466.667V533.333H866.667V466.667H933.333Z" fill="black"/>
</g>
<defs>
<clipPath id="clip0_1_8">
<rect width="800" height="800" fill="white" transform="translate(400 400)"/>
</clipPath>
</defs>
</svg>
